<svg width="135" height="42" viewBox="0 0 135 42" fill="none" xmlns="http://www.w3.org/2000/svg">
<g clip-path="url(#clip0_8_4)">
<path d="M5.89062 10.25L9.59375 21.625L13.5938 10.25H17.1875V33H14.375V23.9219L14.6094 14.4219L10.4062 26.6719H8.75L4.89062 14.75L5.125 23.9219V33H2.3125V10.25H5.89062ZM23.2969 39.8281C23.026 39.8281 22.7083 39.7969 22.3438 39.7344C21.9792 39.6719 21.7031 39.6198 21.5156 39.5781L21.9844 37.2188C22.2448 37.2396 22.5 37.2552 22.75 37.2656C23.0104 37.2865 23.2135 37.2969 23.3594 37.2969C23.7552 37.2969 24.1146 37.1875 24.4375 36.9688C24.7708 36.75 25.0677 36.4896 25.3281 36.1875C25.5781 35.8854 25.7917 35.5729 25.9688 35.25C26.1562 34.9271 26.3021 34.6615 26.4062 34.4531L27.5625 32.2031L20.2812 16.0938H23.5156L28.1562 27L28.9062 29.0469L29.7031 27.0625L34.0625 16.0938H37.2969L28.7188 35.6094C28.5208 36.0469 28.2656 36.5104 27.9531 37C27.651 37.4896 27.2812 37.9427 26.8438 38.3594C26.4062 38.776 25.8958 39.125 25.3125 39.4062C24.7292 39.6875 24.0573 39.8281 23.2969 39.8281ZM44.3125 23.875V33H41.4219V10.25H48.7969C49.8177 10.2708 50.7812 10.4323 51.6875 10.7344C52.6042 11.0365 53.4062 11.474 54.0938 12.0469C54.7812 12.6198 55.3229 13.3281 55.7188 14.1719C56.125 15.0156 56.3281 15.9844 56.3281 17.0781C56.3281 18.1719 56.125 19.1406 55.7188 19.9844C55.3229 20.8177 54.7812 21.5208 54.0938 22.0938C53.4062 22.6667 52.6042 23.1042 51.6875 23.4062C50.7812 23.7083 49.8177 23.8646 48.7969 23.875H44.3125ZM44.3125 21.5H48.7969C49.4635 21.4896 50.0781 21.3854 50.6406 21.1875C51.2031 20.9792 51.6927 20.6875 52.1094 20.3125C52.526 19.9375 52.849 19.4844 53.0781 18.9531C53.3177 18.4115 53.4375 17.7969 53.4375 17.1094C53.4375 16.4219 53.3177 15.8021 53.0781 15.25C52.849 14.6979 52.5312 14.2292 52.125 13.8438C51.7083 13.4583 51.2135 13.1615 50.6406 12.9531C50.0781 12.7448 49.4635 12.6354 48.7969 12.625H44.3125V21.5ZM71.4844 33C71.3698 32.7812 71.276 32.5104 71.2031 32.1875C71.1406 31.8542 71.0938 31.5104 71.0625 31.1562C70.7708 31.4479 70.4427 31.724 70.0781 31.9844C69.724 32.2448 69.3333 32.474 68.9062 32.6719C68.4688 32.8698 68.0052 33.026 67.5156 33.1406C67.026 33.2552 66.5052 33.3125 65.9531 33.3125C65.0573 33.3125 64.2448 33.1823 63.5156 32.9219C62.7969 32.6615 62.1875 32.3073 61.6875 31.8594C61.1771 31.4219 60.7812 30.901 60.5 30.2969C60.2292 29.6823 60.0938 29.0208 60.0938 28.3125C60.0938 27.3854 60.276 26.5729 60.6406 25.875C61.0156 25.1771 61.5417 24.5938 62.2188 24.125C62.8958 23.6667 63.7083 23.3229 64.6562 23.0938C65.6146 22.8646 66.6823 22.75 67.8594 22.75H71.0156V21.4219C71.0156 20.9115 70.9219 20.4531 70.7344 20.0469C70.5469 19.6406 70.2812 19.2917 69.9375 19C69.5938 18.7188 69.1719 18.5 68.6719 18.3438C68.1823 18.1875 67.6302 18.1094 67.0156 18.1094C66.4427 18.1094 65.9271 18.1823 65.4688 18.3281C65.0208 18.474 64.6406 18.6667 64.3281 18.9062C64.0156 19.1458 63.7708 19.4323 63.5938 19.7656C63.4271 20.0885 63.3438 20.4271 63.3438 20.7812H60.4375C60.4479 20.1667 60.6042 19.5625 60.9062 18.9688C61.2188 18.375 61.6667 17.8385 62.25 17.3594C62.8229 16.8906 63.5208 16.5104 64.3438 16.2188C65.1771 15.9271 66.1198 15.7812 67.1719 15.7812C68.1302 15.7812 69.0208 15.901 69.8438 16.1406C70.6667 16.3698 71.3802 16.7188 71.9844 17.1875C72.5781 17.6667 73.0469 18.2604 73.3906 18.9688C73.7344 19.6771 73.9062 20.5052 73.9062 21.4531V29.3125C73.9062 29.875 73.9583 30.474 74.0625 31.1094C74.1667 31.7344 74.3125 32.2812 74.5 32.75V33H71.4844ZM66.375 30.7969C66.9375 30.7969 67.4635 30.724 67.9531 30.5781C68.4427 30.4323 68.8906 30.2396 69.2969 30C69.6927 29.7604 70.0365 29.4896 70.3281 29.1875C70.6198 28.875 70.849 28.5521 71.0156 28.2188V24.7969H68.3281C67.3281 24.7969 66.4531 24.8854 65.7031 25.0625C64.9635 25.2292 64.375 25.4896 63.9375 25.8438C63.625 26.0938 63.3854 26.3906 63.2188 26.7344C63.0625 27.0781 62.9844 27.4688 62.9844 27.9062C62.9844 28.3229 63.0521 28.7083 63.1875 29.0625C63.3333 29.4167 63.5469 29.7188 63.8281 29.9688C64.1094 30.2292 64.4635 30.4323 64.8906 30.5781C65.3177 30.724 65.8125 30.7969 66.375 30.7969ZM90.8281 28.5156C90.8281 28.1719 90.7604 27.8646 90.625 27.5938C90.4896 27.3125 90.2604 27.0573 89.9375 26.8281C89.6146 26.599 89.1875 26.3906 88.6562 26.2031C88.125 26.0052 87.4635 25.8281 86.6719 25.6719C85.7031 25.474 84.8177 25.2344 84.0156 24.9531C83.224 24.6719 82.5469 24.3333 81.9844 23.9375C81.4115 23.5521 80.9688 23.099 80.6562 22.5781C80.3438 22.0469 80.1875 21.4323 80.1875 20.7344C80.1875 20.0469 80.349 19.4062 80.6719 18.8125C80.9948 18.2083 81.4479 17.6823 82.0312 17.2344C82.6146 16.7865 83.3073 16.4323 84.1094 16.1719C84.9219 15.9115 85.8125 15.7812 86.7812 15.7812C87.8229 15.7812 88.7604 15.9167 89.5938 16.1875C90.4271 16.4583 91.1354 16.8333 91.7188 17.3125C92.3021 17.7917 92.75 18.3542 93.0625 19C93.3854 19.6354 93.5469 20.3229 93.5469 21.0625H90.6562C90.6562 20.6979 90.5625 20.3438 90.375 20C90.1875 19.6458 89.9271 19.3333 89.5938 19.0625C89.2604 18.7917 88.8542 18.5729 88.375 18.4062C87.9062 18.2396 87.375 18.1562 86.7812 18.1562C86.1667 18.1562 85.625 18.224 85.1562 18.3594C84.6979 18.4948 84.3177 18.6771 84.0156 18.9062C83.7031 19.1354 83.4688 19.401 83.3125 19.7031C83.1562 20.0052 83.0781 20.3177 83.0781 20.6406C83.0781 20.974 83.1406 21.2708 83.2656 21.5312C83.3906 21.7917 83.6094 22.026 83.9219 22.2344C84.224 22.4427 84.6302 22.6302 85.1406 22.7969C85.6615 22.9635 86.3177 23.125 87.1094 23.2812C88.151 23.5 89.0833 23.7552 89.9062 24.0469C90.7292 24.3281 91.4219 24.6667 91.9844 25.0625C92.5469 25.4688 92.974 25.9375 93.2656 26.4688C93.5677 27 93.7188 27.6146 93.7188 28.3125C93.7188 29.0625 93.5469 29.7448 93.2031 30.3594C92.8698 30.974 92.401 31.5 91.7969 31.9375C91.1927 32.375 90.4688 32.7135 89.625 32.9531C88.7812 33.1927 87.8594 33.3125 86.8594 33.3125C85.7135 33.3125 84.6927 33.1615 83.7969 32.8594C82.901 32.5469 82.1458 32.1354 81.5312 31.625C80.9062 31.125 80.4271 30.5417 80.0938 29.875C79.7708 29.2083 79.6094 28.5156 79.6094 27.7969H82.5C82.5417 28.3906 82.6979 28.8906 82.9688 29.2969C83.25 29.7031 83.599 30.0312 84.0156 30.2812C84.4219 30.5312 84.875 30.7083 85.375 30.8125C85.875 30.9167 86.3698 30.9688 86.8594 30.9688C87.6302 30.9688 88.3021 30.8802 88.875 30.7031C89.4479 30.5156 89.8958 30.2604 90.2188 29.9375C90.4167 29.7396 90.5677 29.5208 90.6719 29.2812C90.776 29.0417 90.8281 28.7865 90.8281 28.5156ZM105.656 12V16.0938H112.094V18.3281H105.656V27.5156C105.656 28.1719 105.74 28.7135 105.906 29.1406C106.073 29.5677 106.302 29.9062 106.594 30.1562C106.885 30.4167 107.219 30.599 107.594 30.7031C107.979 30.8073 108.385 30.8594 108.812 30.8594C109.125 30.8594 109.448 30.8438 109.781 30.8125C110.115 30.7708 110.443 30.724 110.766 30.6719C111.078 30.6198 111.37 30.5677 111.641 30.5156C111.922 30.4531 112.151 30.401 112.328 30.3594L112.734 32.4062C112.495 32.5521 112.203 32.6823 111.859 32.7969C111.516 32.901 111.141 32.9896 110.734 33.0625C110.328 33.1458 109.896 33.2083 109.438 33.25C108.99 33.2917 108.542 33.3125 108.094 33.3125C107.344 33.3125 106.641 33.2083 105.984 33C105.339 32.7812 104.776 32.4375 104.297 31.9688C103.818 31.5104 103.438 30.9167 103.156 30.1875C102.885 29.4479 102.75 28.5573 102.75 27.5156V18.3281H98.3125V16.0938H102.75V12H105.656ZM125.5 33.3125C124.312 33.3125 123.219 33.1094 122.219 32.7031C121.229 32.2969 120.38 31.7292 119.672 31C118.964 30.2708 118.411 29.4062 118.016 28.4062C117.62 27.4062 117.422 26.3177 117.422 25.1406V24.4844C117.422 23.1198 117.641 21.901 118.078 20.8281C118.516 19.7448 119.099 18.8281 119.828 18.0781C120.547 17.3385 121.365 16.7708 122.281 16.375C123.208 15.9792 124.156 15.7812 125.125 15.7812C126.344 15.7812 127.406 15.9948 128.312 16.4219C129.229 16.8385 129.99 17.4167 130.594 18.1562C131.198 18.9062 131.646 19.7865 131.938 20.7969C132.24 21.8073 132.391 22.901 132.391 24.0781V25.375H120.312V25.4844C120.385 26.3073 120.547 27.0312 120.797 27.6562C121.057 28.2812 121.411 28.8333 121.859 29.3125C122.318 29.8229 122.87 30.224 123.516 30.5156C124.161 30.8073 124.875 30.9531 125.656 30.9531C126.688 30.9531 127.604 30.7448 128.406 30.3281C129.208 29.9115 129.875 29.3594 130.406 28.6719L132.172 30.0469C131.609 30.901 130.766 31.6615 129.641 32.3281C128.526 32.9844 127.146 33.3125 125.5 33.3125ZM125.125 18.1562C124.542 18.1562 123.99 18.2656 123.469 18.4844C122.948 18.6927 122.479 19 122.062 19.4062C121.646 19.8229 121.292 20.3333 121 20.9375C120.719 21.5312 120.521 22.2188 120.406 23H129.5V22.8594C129.5 22.3385 129.401 21.7812 129.203 21.1875C129.005 20.5833 128.729 20.0625 128.375 19.625C128.021 19.1875 127.573 18.8333 127.031 18.5625C126.5 18.2917 125.865 18.1562 125.125 18.1562Z" fill="#CBD5E0"/>
</g>
<defs>
<clipPath id="clip0_8_4">
<rect width="135" height="42" fill="white"/>
</clipPath>
</defs>
</svg>
