<svg width="56" height="56" viewBox="0 0 56 56" fill="none" xmlns="http://www.w3.org/2000/svg">
<g clip-path="url(#clip0_5_9)">
<g filter="url(#filter0_d_5_9)">
<path d="M28.5 1.25C28.8906 1.25 29.3789 1.44531 29.7695 1.54297L48.1289 9.35547C50.2773 10.332 51.9375 12.3828 51.9375 14.9219C51.8398 24.6875 47.8359 42.3633 31.0391 50.4688C29.3789 51.25 27.5234 51.25 25.8633 50.4688C9.06641 42.3633 5.0625 24.6875 4.96484 14.9219C4.96484 12.3828 6.625 10.332 8.77344 9.35547L27.1328 1.54297C27.5234 1.44531 28.0117 1.25 28.5 1.25Z" fill="white"/>
</g>
<g filter="url(#filter1_d_5_9)">
<path d="M25.4375 30.1602V41H20.75V12.5625H30.2617C31.694 12.5755 33.0091 12.7904 34.207 13.207C35.418 13.6237 36.4596 14.2161 37.332 14.9844C38.2044 15.7526 38.8815 16.6836 39.3633 17.7773C39.8451 18.8711 40.0859 20.1016 40.0859 21.4688C40.0859 22.7839 39.8451 23.9753 39.3633 25.043C38.8815 26.0977 38.2044 27.0026 37.332 27.7578C36.4596 28.526 35.418 29.1185 34.207 29.5352C33.0091 29.9518 31.694 30.1602 30.2617 30.1602H25.4375ZM25.4375 26.332H30.2617C31.056 26.319 31.7656 26.1953 32.3906 25.9609C33.0286 25.7135 33.569 25.375 34.0117 24.9453C34.4544 24.5156 34.7865 24.0078 35.0078 23.4219C35.2422 22.8359 35.3594 22.1979 35.3594 21.5078C35.3594 20.7526 35.2422 20.069 35.0078 19.457C34.7865 18.832 34.4544 18.2917 34.0117 17.8359C33.569 17.3802 33.0286 17.0286 32.3906 16.7812C31.7656 16.5339 31.056 16.4036 30.2617 16.3906H25.4375V26.332Z" fill="black"/>
</g>
</g>
<defs>
<filter id="filter0_d_5_9" x="0.964844" y="1.25" width="54.9727" height="58" filterUnits="userSpaceOnUse" color-interpolation-filters="sRGB">
<feFlood flood-opacity="0" result="BackgroundImageFix"/>
<feColorMatrix in="SourceAlpha" type="matrix" values="0 0 0 0 0 0 0 0 0 0 0 0 0 0 0 0 0 0 127 0" result="hardAlpha"/>
<feOffset dy="4"/>
<feGaussianBlur stdDeviation="2"/>
<feComposite in2="hardAlpha" operator="out"/>
<feColorMatrix type="matrix" values="0 0 0 0 0 0 0 0 0 0 0 0 0 0 0 0 0 0 0.25 0"/>
<feBlend mode="normal" in2="BackgroundImageFix" result="effect1_dropShadow_5_9"/>
<feBlend mode="normal" in="SourceGraphic" in2="effect1_dropShadow_5_9" result="shape"/>
</filter>
<filter id="filter1_d_5_9" x="16.75" y="12.5625" width="27.3359" height="36.4375" filterUnits="userSpaceOnUse" color-interpolation-filters="sRGB">
<feFlood flood-opacity="0" result="BackgroundImageFix"/>
<feColorMatrix in="SourceAlpha" type="matrix" values="0 0 0 0 0 0 0 0 0 0 0 0 0 0 0 0 0 0 127 0" result="hardAlpha"/>
<feOffset dy="4"/>
<feGaussianBlur stdDeviation="2"/>
<feComposite in2="hardAlpha" operator="out"/>
<feColorMatrix type="matrix" values="0 0 0 0 0 0 0 0 0 0 0 0 0 0 0 0 0 0 0.25 0"/>
<feBlend mode="normal" in2="BackgroundImageFix" result="effect1_dropShadow_5_9"/>
<feBlend mode="normal" in="SourceGraphic" in2="effect1_dropShadow_5_9" result="shape"/>
</filter>
<clipPath id="clip0_5_9">
<rect width="56" height="56" fill="white"/>
</clipPath>
</defs>
</svg>
